HIERARCHY
ROOT Hips
{
  OFFSET -32.5998 29.0326 120.673
  CHANNELS 6 Xposition Yposition Zposition Zrotation Xrotation Yrotation
  JOINT LeftUpLeg
  {
    OFFSET 8.64259 1.95398 -2.38835
    CHANNELS 3 Zrotation Xrotation Yrotation
    JOINT LeftLeg
    {
      OFFSET 43.7702 0 0
      CHANNELS 3 Zrotation Xrotation Yrotation
      JOINT LeftFoot
      {
        OFFSET 40.6238 0 0
        CHANNELS 3 Zrotation Xrotation Yrotation
        JOINT LeftToeBase
        {
          OFFSET 12.7242 0 0
          CHANNELS 3 Zrotation Xrotation Yrotation
          End Site
          {
            OFFSET 0 0 0
          }
        }
      }
    }
  }
  JOINT RightUpLeg
  {
    OFFSET -8.2249 1.95398 -2.59336
    CHANNELS 3 Zrotation Xrotation Yrotation
    JOINT RightLeg
    {
      OFFSET 43.5653 0 0
      CHANNELS 3 Zrotation Xrotation Yrotation
      JOINT RightFoot
      {
        OFFSET 40.6238 0 0
        CHANNELS 3 Zrotation Xrotation Yrotation
        JOINT RightToeBase
        {
          OFFSET 12.7242 0 0
          CHANNELS 3 Zrotation Xrotation Yrotation
          End Site
          {
            OFFSET 0 0 0
          }
        }
      }
    }
  }
  JOINT Spine
  {
    OFFSET 0.165834 0.87714 6.61349
    CHANNELS 3 Zrotation Xrotation Yrotation
    JOINT Spine1
    {
      OFFSET 7.38963 1.71661e-005 0
      CHANNELS 3 Zrotation Xrotation Yrotation
      JOINT Spine2
      {
        OFFSET 11.9445 1.14441e-005 0
        CHANNELS 3 Zrotation Xrotation Yrotation
        JOINT Spine3
        {
          OFFSET 14.7254 4.19617e-005 0
          CHANNELS 3 Zrotation Xrotation Yrotation
          JOINT Spine4
          {
            OFFSET 10.9679 0 0
            CHANNELS 3 Zrotation Xrotation Yrotation
            JOINT RightShoulder
            {
              OFFSET 2.46616 -1.6653 3.69651
              CHANNELS 3 Zrotation Xrotation Yrotation
              JOINT RightArm
              {
                OFFSET 13.0012 0 0
                CHANNELS 3 Zrotation Xrotation Yrotation
                JOINT RightForeArm
                {
                  OFFSET 28.7848 1.62311e-005 0
                  CHANNELS 3 Zrotation Xrotation Yrotation
                  JOINT RightHand
                  {
                    OFFSET 26.5688 1.62095e-005 0
                    CHANNELS 3 Zrotation Xrotation Yrotation
                    End Site
                    {
                      OFFSET 0 0 0
                    }
                  }
                }
              }
            }
            JOINT LeftShoulder
            {
              OFFSET 2.38034 -1.29275 -3.7523
              CHANNELS 3 Zrotation Xrotation Yrotation
              JOINT LeftArm
              {
                OFFSET 16.3182 6.07031e-005 0
                CHANNELS 3 Zrotation Xrotation Yrotation
                JOINT LeftForeArm
                {
                  OFFSET 27.0901 0 0
                  CHANNELS 3 Zrotation Xrotation Yrotation
                  JOINT LeftHand
                  {
                    OFFSET 24.5451 1.51738e-005 0
                    CHANNELS 3 Zrotation Xrotation Yrotation
                    End Site
                    {
                      OFFSET 0 0 0
                    }
                  }
                }
              }
            }
            JOINT Neck
            {
              OFFSET 5.0226 -0.0266342 0
              CHANNELS 3 Zrotation Xrotation Yrotation
              JOINT Head
              {
                OFFSET 6.69364 2.86102e-005 0
                CHANNELS 3 Zrotation Xrotation Yrotation
                End Site
                {
                  OFFSET 0 0 0
                }
              }
            }
          }
        }
      }
    }
  }
}
MOTION
Frames:	9
Frame Time:	0.0416667
30.2714 45.2982 8.10426 -68.7861 -83.6533 -68.0894 1.23456 81.5625 -52.3867 -132.86 5.91427 5.73926 94.0719 20.1324 0.789779 28.8722 -4.19808 10.0904 28.8095 79.3554 -147.871 -135.603 -16.6379 -5.38015 87.2301 -21.6397 -7.16594 31.1763 -1.16739 0.412667 0.860435 13.2741 -90.2984 0.327606 1.60523 -0.508962 -11.3425 1.58128 -0.579151 -33.8856 1.68396 -0.00285936 -13.8729 1.68397 -0.00285278 88.2433 -19.4665 -115.616 5.78356 -12.6187 -57.8641 -18.6569 -39.2538 -24.0533 -24.7957 -4.32059 14.7645 -92.3259 -33.5207 70.2657 10.5078 15.4836 -81.5151 5.81425 29.8427 -4.14619 8.09012 1.54597 13.362 40.9335 -1.3108 0.0312001 -1.27692 -1.24939 -0.311337 
30.0374 45.3687 7.94769 -66.235 -82.6843 -64.6453 10.6208 80.8255 -60.9149 -132.913 6.38735 5.58977 93.6841 20.0252 0.765443 28.9204 -4.42906 10.6715 34.1445 77.9828 -152.058 -135.239 -16.0555 -5.46807 87.3165 -21.487 -7.05729 30.9073 -1.01824 0.277884 0.999535 13.2069 -90.3529 0.462922 1.86216 -0.606933 -11.2069 1.83364 -0.68834 -33.7527 1.95845 -0.0190242 -13.7401 1.95845 -0.0190091 88.279 -19.2109 -115.691 5.30748 -12.764 -57.9136 -18.1443 -38.8397 -23.5364 -24.3504 -4.30852 15.0784 -92.2882 -33.4908 70.3224 10.2392 15.3769 -81.5881 6.04244 30.5615 -4.40175 7.53855 1.39595 12.631 40.6971 -1.00891 0.819786 -0.625523 -1.37957 -1.35191 
30.103 45.3624 7.94426 -65.693 -82.64 -64.0493 10.7766 80.7296 -61.0587 -132.81 6.25179 5.60364 93.9933 20.1869 0.58326 28.8223 -4.49626 10.6711 33.6201 77.9454 -151.57 -135.229 -16.2259 -5.46489 87.1766 -21.3497 -6.98898 31.019 -1.0818 0.340724 1.00441 13.218 -90.3611 0.440794 1.86888 -0.622085 -11.229 1.8397 -0.70376 -33.7749 1.96941 -0.0314359 -13.7623 1.96941 -0.0314304 88.3929 -19.165 -115.456 5.97723 -12.4492 -57.9499 -18.668 -38.6749 -23.9126 -23.8801 -4.15472 14.7668 -92.2882 -33.4522 70.3082 9.79254 15.015 -81.5681 6.39587 31.4657 -4.797 8.64181 1.50614 12.0008 40.9922 -1.10758 0.484344 -1.04088 -1.29259 -0.704607 
30.1176 45.3476 7.9483 -66.2953 -82.6067 -64.7114 10.0414 80.67 -60.2669 -132.859 6.21758 5.60535 93.0927 19.854 1.42397 27.3757 -2.88955 5.40821 33.3804 78.0405 -151.265 -135.261 -16.2565 -5.45975 87.2149 -21.415 -7.05169 30.8142 -0.98082 0.295834 0.989659 13.2316 -90.3593 0.413596 1.84016 -0.619092 -11.2562 1.81114 -0.699518 -33.8018 1.94112 -0.0372288 -13.7892 1.94113 -0.0372311 88.3842 -19.1343 -115.495 5.21371 -12.6633 -58.2119 -18.3059 -38.9912 -23.7457 -24.7524 -4.38488 15.0942 -92.3144 -33.7379 70.3655 10.3235 15.0116 -81.6731 6.14471 30.8889 -4.59531 7.88377 1.39019 12.0179 41.1372 -0.963981 0.559799 -1.35126 -1.19263 -0.703319 
30.073 45.2227 7.9684 -66.0183 -82.6702 -64.5418 10.1151 80.6363 -60.3312 -132.939 6.24357 5.625 94.0842 20.2704 0.550574 28.2909 -4.59807 10.2984 32.3278 77.9987 -150.13 -135.446 -16.0097 -5.44428 87.2209 -21.3784 -7.04088 31.0753 -1.08986 0.264256 0.992351 13.2145 -90.3546 0.447774 1.8472 -0.610676 -11.2221 1.81852 -0.691406 -33.7677 1.9453 -0.02709 -13.7551 1.9453 -0.0270795 88.5689 -19.0337 -115.129 6.27987 -12.5049 -58.2501 -18.9077 -39.6716 -24.1236 -24.8089 -4.38742 15.0564 -92.2951 -33.6575 70.371 10.5965 15.2243 -81.759 6.02474 30.8048 -4.53959 7.28417 1.34617 12.5157 40.7499 -1.00516 0.809758 -0.962497 -1.36396 -1.14759 
30.0495 45.1221 8.00668 -66.0738 -82.7531 -64.695 9.84522 80.6311 -60.1522 -133.106 6.20097 5.62928 93.8778 20.1083 0.70363 28.1481 -4.37585 9.63583 31.6115 78.0435 -149.484 -135.615 -15.9478 -5.42763 87.2753 -21.4046 -7.00804 31.009 -1.05673 0.247898 0.980154 13.1851 -90.3458 0.506415 1.82606 -0.595908 -11.1634 1.79808 -0.675708 -33.7089 1.92071 -0.0193442 -13.6962 1.92071 -0.0193474 88.4771 -19.2245 -115.226 5.7365 -12.9315 -58.0817 -18.5881 -39.1802 -23.9765 -24.6402 -4.35089 15.0292 -92.2681 -33.7245 70.4436 10.8563 15.5185 -81.7561 6.04792 30.5694 -4.49105 7.42247 1.38654 12.7414 40.7495 -1.1114 0.573361 -1.2716 -1.33901 -0.819542 
30.1145 45.0658 8.06117 -66.2034 -82.8606 -64.883 9.61195 80.7097 -59.9364 -133.157 6.38774 5.62116 94.5114 20.3902 0.156133 28.9941 -5.41388 12.9804 30.7212 78.2048 -148.773 -135.724 -16.1886 -5.43329 87.261 -21.4207 -7.06934 31.1416 -1.10137 0.183193 0.966994 13.1914 -90.3634 0.493987 1.79331 -0.63116 -11.1759 1.76379 -0.709494 -33.721 1.90006 -0.0628285 -13.7083 1.90007 -0.0628396 88.5964 -18.9822 -115.097 6.39104 -12.7619 -57.9595 -18.9459 -39.2513 -24.2169 -24.1023 -4.17989 14.704 -92.2783 -33.8545 70.4725 10.8649 15.4535 -82.0038 5.59218 30.3908 -4.17368 7.51318 1.41524 12.8956 40.7011 -1.04827 0.99668 -0.747316 -1.5023 -1.3546 
30.0908 45.023 8.0249 -66.5135 -82.6769 -65.1638 10.1856 80.6227 -60.4325 -133.168 6.39353 5.6302 94.4821 20.4375 0.246186 29.093 -5.48104 13.2655 30.5984 78.0409 -148.373 -135.715 -16.106 -5.4389 87.1592 -21.3566 -7.10981 31.1336 -1.09798 0.183701 0.988445 13.1884 -90.3444 0.499781 1.84319 -0.592223 -11.17 1.81534 -0.672797 -33.7157 1.93593 -0.0106907 -13.703 1.93593 -0.0106902 88.5602 -19.0731 -115.126 6.32102 -12.7958 -58.0359 -19.0142 -39.4192 -24.2741 -24.5904 -4.33 14.9811 -92.1885 -33.6713 70.5671 10.7185 15.4095 -82.0407 5.67531 30.6599 -4.24562 7.55416 1.43469 13.0599 41.1519 -1.28243 0.379719 -1.38238 -1.3988 -0.53368 
30.0843 45.1169 7.99585 -66.7811 -82.6632 -65.2453 11.1462 80.5765 -61.3865 -133.257 6.14922 5.57317 93.6304 19.894 0.692253 29.3551 -4.3025 10.9199 32.5655 77.939 -150.393 -135.571 -15.9032 -5.46385 87.3464 -21.4221 -7.01893 31.0458 -1.11925 0.456315 0.993799 13.1871 -90.3632 0.502638 1.84681 -0.628672 -11.1672 1.81736 -0.70936 -33.7129 1.95035 -0.0443556 -13.7002 1.95035 -0.0443598 88.4985 -18.9709 -115.331 5.30703 -13.1273 -58.2609 -17.9931 -39.0359 -23.398 -24.6473 -4.39969 15.249 -92.2384 -33.7417 70.5032 9.8638 15.4261 -81.4744 6.4962 31.1042 -4.64867 7.72621 1.51401 13.6412 40.7449 -1.03648 0.857279 -0.743529 -1.41609 -1.02386 
